<svg xmlns="http://www.w3.org/2000/svg" viewBox="0 0 47 45"><defs><linearGradient id="a" gradientTransform="rotate(90)"><stop offset="12.22%" stop-color="#505FD1"/><stop offset="35.67%" stop-color="#CF2D93"/><stop offset="61.16%" stop-color="#F66635"/><stop offset="85.56%" stop-color="#FED16E"/></linearGradient></defs><path d="M45.208 18.167c1.583 4.822 1.853 10.245.01 14.89-2.826 7.124-10.32 11.301-17.612 11.44-5.75.107-13.248-2.158-18.907-6.364C3.05 33.936-.685 27.878.845 20.378 2.163 13.924 7.855 7.826 13.041 4.37c6.745-4.492 13.511-4.85 19.21-2.223 5.718 2.637 10.43 8.313 12.957 16.02z" fill="url(#a)"/><g fill="#fff"><path d="M27.584 15h-7.169A4.42 4.42 0 0 0 16 19.415v7.17A4.42 4.42 0 0 0 20.415 31h7.17A4.42 4.42 0 0 0 32 26.584v-7.169A4.42 4.42 0 0 0 27.584 15zm2.996 11.584a3 3 0 0 1-2.995 2.996h-7.17a3 3 0 0 1-2.995-2.995v-7.17a3 3 0 0 1 2.995-2.995h7.17a3 3 0 0 1 2.995 2.995v7.17z"/><path d="M24 18.877A4.127 4.127 0 0 0 19.877 23 4.127 4.127 0 0 0 24 27.123 4.127 4.127 0 0 0 28.123 23 4.127 4.127 0 0 0 24 18.877zm0 6.826A2.706 2.706 0 0 1 21.297 23 2.706 2.706 0 0 1 24 20.297 2.706 2.706 0 0 1 26.703 23 2.706 2.706 0 0 1 24 25.703zM28.296 17.674a1.045 1.045 0 0 0-1.041 1.04c0 .274.112.543.306.737.193.193.461.305.735.305.274 0 .542-.112.736-.305a1.046 1.046 0 0 0 0-1.473 1.046 1.046 0 0 0-.736-.304z"/></g></svg>