<svg xmlns="http://www.w3.org/2000/svg">
    <defs>
        <linearGradient id="a" gradientTransform="rotate(90)">
            <stop offset="12.22%" stop-color="#505FD1"/>
            <stop offset="35.67%" stop-color="#CF2D93"/>
            <stop offset="61.16%" stop-color="#F66635"/>
            <stop offset="85.56%" stop-color="#FED16E"/>
        </linearGradient>
    </defs>
    <symbol id="bg" viewBox="0 0 47 45">
        <path d="M45.21 18.17L45.21 18.17C46.79 22.99 47.06 28.41 45.22 33.06C42.39 40.18 34.9 44.36 27.61 44.5C21.86 44.60 14.36 42.39 8.7 38.13C3.05 33.94 -0.69 27.88 0.85 20.38C2.16 13.92 7.86 7.83 13.04 4.37C19.79 -0.12 26.55 -0.48 32.25 2.15C37.97 4.78 42.68 10.46 45.21 18.17Z"></path>
    </symbol>
    <symbol id="heart" viewBox="0 0 47 45" stroke="none">
        <path d="M24 31.887c-.285 0-.56-.103-.773-.29-.808-.707-1.587-1.37-2.274-1.956l-.004-.003c-2.015-1.717-3.755-3.2-4.965-4.66C14.63 23.343 14 21.795 14 20.103c0-1.643.564-3.16 1.587-4.269a5.378 5.378 0 0 1 4-1.741 5.03 5.03 0 0 1 3.143 1.085c.47.363.895.807 1.27 1.326a6.43 6.43 0 0 1 1.27-1.326 5.03 5.03 0 0 1 3.143-1.085c1.544 0 2.965.618 4 1.741 1.024 1.11 1.587 2.626 1.587 4.27 0 1.69-.63 3.24-1.983 4.872-1.211 1.46-2.951 2.944-4.966 4.66-.688.587-1.468 1.252-2.278 1.96-.214.187-.488.29-.773.29zm-4.413-16.622a4.22 4.22 0 0 0-3.14 1.364c-.822.893-1.276 2.127-1.276 3.475 0 1.423.53 2.695 1.715 4.126 1.145 1.382 2.85 2.835 4.823 4.516l.004.003c.69.588 1.471 1.255 2.285 1.966.82-.713 1.602-1.38 2.293-1.97 1.974-1.68 3.678-3.133 4.823-4.515 1.186-1.43 1.714-2.703 1.714-4.126 0-1.348-.453-2.582-1.276-3.475a4.22 4.22 0 0 0-3.139-1.364c-.889 0-1.705.283-2.426.84-.642.497-1.09 1.125-1.352 1.564a.734.734 0 0 1-.635.361.734.734 0 0 1-.635-.36c-.262-.44-.71-1.068-1.352-1.565a3.885 3.885 0 0 0-2.426-.84z"/>
    </symbol>
    <symbol id="menu" viewBox="0 0 47 45" stroke="none">
        <path d="M15 19h18a1 1 0 0 0 0-2H15a1 1 0 0 0 0 2zm18 8H15a1 1 0 0 0 0 2h18a1 1 0 0 0 0-2zm0-5H15a1 1 0 0 0 0 2h18a1 1 0 0 0 0-2z"/>
    </symbol>
    <symbol id="phone" viewBox="0 0 47 45" stroke="none">
        <path d="M28.456 31.661H19.55c-.991 0-1.797-.806-1.797-1.797V13.459c0-.99.806-1.797 1.797-1.797h8.906c.99 0 1.797.806 1.797 1.797v16.407c0 .99-.806 1.796-1.797 1.796zm-8.906-18.75a.547.547 0 0 0-.547.547v16.407c0 .301.245.546.547.546h8.906a.547.547 0 0 0 .547-.547V13.459a.547.547 0 0 0-.547-.547H19.55z"/><path d="M25.253 15.099h-2.5a.625.625 0 0 1 0-1.25h2.5a.625.625 0 0 1 0 1.25zM24.002 29.661a1 1 0 1 0 0-2 1 1 0 0 0 0 2z"/>
    </symbol>
    <symbol id="mark" viewBox="0 0 47 45" stroke="none">
        <path d="M29.558 16.089A6.128 6.128 0 0 0 24.198 13a6.128 6.128 0 0 0-5.36 3.089 6.104 6.104 0 0 0 0 6.177l4.9 8.469a.532.532 0 0 0 .92 0l4.9-8.47a6.104 6.104 0 0 0 0-6.176zm-.922 5.645-4.438 7.673-4.438-7.673a5.054 5.054 0 0 1 0-5.114 5.075 5.075 0 0 1 4.438-2.558c1.853 0 3.512.956 4.438 2.558a5.054 5.054 0 0 1 0 5.114z"/><path d="M24.198 16.183a3.181 3.181 0 0 0-3.18 3.174 3.18 3.18 0 0 0 6.36 0 3.181 3.181 0 0 0-3.18-3.174zm0 5.286a2.117 2.117 0 0 1-2.116-2.112 2.117 2.117 0 0 1 4.232 0c0 1.165-.949 2.112-2.116 2.112z"/>
    </symbol>
    <symbol id="clock" viewBox="0 0 47 45" stroke="none">
        <path d="M24.991 14C20.023 14 16 18.032 16 23s4.023 9 8.991 9C29.968 32 34 27.968 34 23s-4.032-9-9.009-9zM25 30.2a7.198 7.198 0 0 1-7.2-7.2c0-3.978 3.222-7.2 7.2-7.2s7.2 3.222 7.2 7.2-3.222 7.2-7.2 7.2z"/><path d="M25.25 19H24v4.59L28.375 26l.625-.941-3.75-2.043V19z"/>
    </symbol>
    <symbol id="fb" viewBox="0 0 47 45" stroke="none">
        <path d="M26.722 17.325H28v-2.226A16.5 16.5 0 0 0 26.138 15c-1.842 0-3.105 1.16-3.105 3.29v1.96H21v2.489h2.033V29h2.493v-6.26h1.951l.31-2.49h-2.261v-1.714c0-.72.194-1.211 1.196-1.211z"/>
    </symbol>
    <symbol id="inst" viewBox="0 0 47 45" stroke="none">
        <path d="M27.584 15h-7.169A4.42 4.42 0 0 0 16 19.415v7.17A4.42 4.42 0 0 0 20.415 31h7.17A4.42 4.42 0 0 0 32 26.584v-7.169A4.42 4.42 0 0 0 27.584 15zm2.996 11.584a3 3 0 0 1-2.995 2.996h-7.17a3 3 0 0 1-2.995-2.995v-7.17a3 3 0 0 1 2.995-2.995h7.17a3 3 0 0 1 2.995 2.995v7.17z"/>
        <path d="M24 18.877A4.127 4.127 0 0 0 19.877 23 4.127 4.127 0 0 0 24 27.123 4.127 4.127 0 0 0 28.123 23 4.127 4.127 0 0 0 24 18.877zm0 6.826A2.706 2.706 0 0 1 21.297 23 2.706 2.706 0 0 1 24 20.297 2.706 2.706 0 0 1 26.703 23 2.706 2.706 0 0 1 24 25.703zM28.296 17.674a1.045 1.045 0 0 0-1.041 1.04c0 .274.112.543.306.737.193.193.461.305.735.305.274 0 .542-.112.736-.305a1.046 1.046 0 0 0 0-1.473 1.046 1.046 0 0 0-.736-.304z"/>
    </symbol>
</svg>
